<svg aria-roledescription="flowchart-v2" role="graphics-document document" viewBox="-8 -8 1605.99609375 1862.484375" style="max-width: 1605.99609375px;" xmlns="http://www.w3.org/2000/svg" width="100%" id="mermaid-svg-1751598747323-75ohaqz28"><style>#mermaid-svg-1751598747323-75ohaqz28{font-family:"trebuchet ms",verdana,arial,sans-serif;font-size:16px;fill:rgba(204, 204, 204, 0.87);}#mermaid-svg-1751598747323-75ohaqz28 .error-icon{fill:#bf616a;}#mermaid-svg-1751598747323-75ohaqz28 .error-text{fill:#bf616a;stroke:#bf616a;}#mermaid-svg-1751598747323-75ohaqz28 .edge-thickness-normal{stroke-width:2px;}#mermaid-svg-1751598747323-75ohaqz28 .edge-thickness-thick{stroke-width:3.5px;}#mermaid-svg-1751598747323-75ohaqz28 .edge-pattern-solid{stroke-dasharray:0;}#mermaid-svg-1751598747323-75ohaqz28 .edge-pattern-dashed{stroke-dasharray:3;}#mermaid-svg-1751598747323-75ohaqz28 .edge-pattern-dotted{stroke-dasharray:2;}#mermaid-svg-1751598747323-75ohaqz28 .marker{fill:rgba(204, 204, 204, 0.87);stroke:rgba(204, 204, 204, 0.87);}#mermaid-svg-1751598747323-75ohaqz28 .marker.cross{stroke:rgba(204, 204, 204, 0.87);}#mermaid-svg-1751598747323-75ohaqz28 svg{font-family:"trebuchet ms",verdana,arial,sans-serif;font-size:16px;}#mermaid-svg-1751598747323-75ohaqz28 .label{font-family:"trebuchet ms",verdana,arial,sans-serif;color:rgba(204, 204, 204, 0.87);}#mermaid-svg-1751598747323-75ohaqz28 .cluster-label text{fill:#ffffff;}#mermaid-svg-1751598747323-75ohaqz28 .cluster-label span,#mermaid-svg-1751598747323-75ohaqz28 p{color:#ffffff;}#mermaid-svg-1751598747323-75ohaqz28 .label text,#mermaid-svg-1751598747323-75ohaqz28 span,#mermaid-svg-1751598747323-75ohaqz28 p{fill:rgba(204, 204, 204, 0.87);color:rgba(204, 204, 204, 0.87);}#mermaid-svg-1751598747323-75ohaqz28 .node rect,#mermaid-svg-1751598747323-75ohaqz28 .node circle,#mermaid-svg-1751598747323-75ohaqz28 .node ellipse,#mermaid-svg-1751598747323-75ohaqz28 .node polygon,#mermaid-svg-1751598747323-75ohaqz28 .node path{fill:#1a1a1a;stroke:#2a2a2a;stroke-width:1px;}#mermaid-svg-1751598747323-75ohaqz28 .flowchart-label text{text-anchor:middle;}#mermaid-svg-1751598747323-75ohaqz28 .node .label{text-align:center;}#mermaid-svg-1751598747323-75ohaqz28 .node.clickable{cursor:pointer;}#mermaid-svg-1751598747323-75ohaqz28 .arrowheadPath{fill:#e5e5e5;}#mermaid-svg-1751598747323-75ohaqz28 .edgePath .path{stroke:rgba(204, 204, 204, 0.87);stroke-width:2.0px;}#mermaid-svg-1751598747323-75ohaqz28 .flowchart-link{stroke:rgba(204, 204, 204, 0.87);fill:none;}#mermaid-svg-1751598747323-75ohaqz28 .edgeLabel{background-color:#1a1a1a99;text-align:center;}#mermaid-svg-1751598747323-75ohaqz28 .edgeLabel rect{opacity:0.5;background-color:#1a1a1a99;fill:#1a1a1a99;}#mermaid-svg-1751598747323-75ohaqz28 .labelBkg{background-color:rgba(26, 26, 26, 0.5);}#mermaid-svg-1751598747323-75ohaqz28 .cluster rect{fill:rgba(64, 64, 64, 0.47);stroke:#30373a;stroke-width:1px;}#mermaid-svg-1751598747323-75ohaqz28 .cluster text{fill:#ffffff;}#mermaid-svg-1751598747323-75ohaqz28 .cluster span,#mermaid-svg-1751598747323-75ohaqz28 p{color:#ffffff;}#mermaid-svg-1751598747323-75ohaqz28 div.mermaidTooltip{position:absolute;text-align:center;max-width:200px;padding:2px;font-family:"trebuchet ms",verdana,arial,sans-serif;font-size:12px;background:#88c0d0;border:1px solid #30373a;border-radius:2px;pointer-events:none;z-index:100;}#mermaid-svg-1751598747323-75ohaqz28 .flowchartTitleText{text-anchor:middle;font-size:18px;fill:rgba(204, 204, 204, 0.87);}#mermaid-svg-1751598747323-75ohaqz28 :root{--mermaid-font-family:"trebuchet ms",verdana,arial,sans-serif;}</style><g><marker orient="auto" markerHeight="12" markerWidth="12" markerUnits="userSpaceOnUse" refY="5" refX="6" viewBox="0 0 10 10" class="marker flowchart" id="mermaid-svg-1751598747323-75ohaqz28_flowchart-pointEnd"><path style="stroke-width: 1; stroke-dasharray: 1, 0;" class="arrowMarkerPath" d="M 0 0 L 10 5 L 0 10 z"/></marker><marker orient="auto" markerHeight="12" markerWidth="12" markerUnits="userSpaceOnUse" refY="5" refX="4.5" viewBox="0 0 10 10" class="marker flowchart" id="mermaid-svg-1751598747323-75ohaqz28_flowchart-pointStart"><path style="stroke-width: 1; stroke-dasharray: 1, 0;" class="arrowMarkerPath" d="M 0 5 L 10 10 L 10 0 z"/></marker><marker orient="auto" markerHeight="11" markerWidth="11" markerUnits="userSpaceOnUse" refY="5" refX="11" viewBox="0 0 10 10" class="marker flowchart" id="mermaid-svg-1751598747323-75ohaqz28_flowchart-circleEnd"><circle style="stroke-width: 1; stroke-dasharray: 1, 0;" class="arrowMarkerPath" r="5" cy="5" cx="5"/></marker><marker orient="auto" markerHeight="11" markerWidth="11" markerUnits="userSpaceOnUse" refY="5" refX="-1" viewBox="0 0 10 10" class="marker flowchart" id="mermaid-svg-1751598747323-75ohaqz28_flowchart-circleStart"><circle style="stroke-width: 1; stroke-dasharray: 1, 0;" class="arrowMarkerPath" r="5" cy="5" cx="5"/></marker><marker orient="auto" markerHeight="11" markerWidth="11" markerUnits="userSpaceOnUse" refY="5.2" refX="12" viewBox="0 0 11 11" class="marker cross flowchart" id="mermaid-svg-1751598747323-75ohaqz28_flowchart-crossEnd"><path style="stroke-width: 2; stroke-dasharray: 1, 0;" class="arrowMarkerPath" d="M 1,1 l 9,9 M 10,1 l -9,9"/></marker><marker orient="auto" markerHeight="11" markerWidth="11" markerUnits="userSpaceOnUse" refY="5.2" refX="-1" viewBox="0 0 11 11" class="marker cross flowchart" id="mermaid-svg-1751598747323-75ohaqz28_flowchart-crossStart"><path style="stroke-width: 2; stroke-dasharray: 1, 0;" class="arrowMarkerPath" d="M 1,1 l 9,9 M 10,1 l -9,9"/></marker><g class="root"><g class="clusters"><g id="C" class="cluster default flowchart-label"><rect height="1136.328125" width="230.984375" y="710.15625" x="0" ry="0" rx="0" style=""/><g transform="translate(25.46875, 710.15625)" class="cluster-label"><foreignObject height="24" width="180.046875"><div style="display: inline-block; white-space: nowrap;" xmlns="http://www.w3.org/1999/xhtml"><span class="nodeLabel">第三部分：导出PPTX流程</span></div></foreignObject></g></g><g id="B" class="cluster default flowchart-label"><rect height="522.15625" width="228.4375" y="114" x="1361.55859375" ry="0" rx="0" style=""/><g transform="translate(1377.22265625, 114)" class="cluster-label"><foreignObject height="24" width="197.109375"><div style="display: inline-block; white-space: nowrap;" xmlns="http://www.w3.org/1999/xhtml"><span class="nodeLabel">第二部分：从文件加载'蓝图'</span></div></foreignObject></g></g><g id="A" class="cluster default flowchart-label"><rect height="1030.453125" width="1090.57421875" y="0" x="250.984375" ry="0" rx="0" style=""/><g transform="translate(649.716796875, 0)" class="cluster-label"><foreignObject height="24" width="293.109375"><div style="display: inline-block; white-space: nowrap;" xmlns="http://www.w3.org/1999/xhtml"><span class="nodeLabel">第一部分：用户交互与'蓝图'的诞生和成长</span></div></foreignObject></g></g><g id="F_Group" class="cluster default flowchart-label"><rect height="472.15625" width="644.8671875" y="139" x="675.23046875" ry="0" rx="0" style=""/><g transform="translate(947.109375, 139)" class="cluster-label"><foreignObject height="24" width="101.109375"><div style="display: inline-block; white-space: nowrap;" xmlns="http://www.w3.org/1999/xhtml"><span class="nodeLabel">更新'蓝图'对象</span></div></foreignObject></g></g></g><g class="edgePaths"><path marker-end="url(#mermaid-svg-1751598747323-75ohaqz28_flowchart-pointEnd)" style="fill:none;" class="edge-thickness-normal edge-pattern-solid flowchart-link LS-U1 LE-F1" id="L-U1-F1-0" d="M376.699,270.203L376.699,285.57C376.699,300.938,376.699,331.672,377.702,352.76C378.704,373.849,380.709,385.291,381.711,391.012L382.713,396.734"/><path marker-end="url(#mermaid-svg-1751598747323-75ohaqz28_flowchart-pointEnd)" style="fill:none;" class="edge-thickness-normal edge-pattern-solid flowchart-link LS-U2 LE-F1" id="L-U2-F1-0" d="M564.254,270.203L564.254,285.57C564.254,300.938,564.254,331.672,546.691,360.253C529.129,388.833,494.004,415.26,476.441,428.474L458.879,441.687"/><path marker-end="url(#mermaid-svg-1751598747323-75ohaqz28_flowchart-pointEnd)" style="fill:none;" class="edge-thickness-normal edge-pattern-solid flowchart-link LS-F1 LE-S1" id="L-F1-S1-0" d="M397.676,586.656L397.592,590.74C397.509,594.823,397.342,602.99,397.259,611.24C397.176,619.49,397.176,627.823,397.176,638.156C397.176,648.49,397.176,660.823,397.176,673.156C397.176,685.49,397.176,697.823,488.845,712.223C580.515,726.623,763.855,743.09,855.524,751.324L947.194,759.558"/><path marker-end="url(#mermaid-svg-1751598747323-75ohaqz28_flowchart-pointEnd)" style="fill:none;" class="edge-thickness-normal edge-pattern-solid flowchart-link LS-S1 LE-C1" id="L-S1-C1-0" d="M1011.436,781.156L1017.701,789.323C1023.967,797.49,1036.497,813.823,1042.762,835.548C1049.027,857.272,1049.027,884.389,1049.027,897.947L1049.027,911.505"/><path marker-end="url(#mermaid-svg-1751598747323-75ohaqz28_flowchart-pointEnd)" style="fill:none;" class="edge-thickness-normal edge-pattern-solid flowchart-link LS-U3 LE-F2" id="L-U3-F2-0" d="M786.691,64L786.691,68.167C786.691,72.333,786.691,80.667,786.691,89C786.691,97.333,786.691,105.667,786.691,114C786.691,122.333,786.691,130.667,786.763,140.151C786.834,149.635,786.977,160.269,787.049,165.586L787.12,170.904"/><path marker-end="url(#mermaid-svg-1751598747323-75ohaqz28_flowchart-pointEnd)" style="fill:none;" class="edge-thickness-normal edge-pattern-solid flowchart-link LS-U4 LE-F3" id="L-U4-F3-0" d="M998.395,64L998.395,68.167C998.395,72.333,998.395,80.667,998.395,89C998.395,97.333,998.395,105.667,998.395,114C998.395,122.333,998.395,130.667,998.461,138.2C998.527,145.734,998.659,152.467,998.725,155.834L998.791,159.201"/><path marker-end="url(#mermaid-svg-1751598747323-75ohaqz28_flowchart-pointEnd)" style="fill:none;" class="edge-thickness-normal edge-pattern-solid flowchart-link LS-U5 LE-F4" id="L-U5-F4-0" d="M1210.098,64L1210.098,68.167C1210.098,72.333,1210.098,80.667,1210.098,89C1210.098,97.333,1210.098,105.667,1210.098,114C1210.098,122.333,1210.098,130.667,1210.169,140.151C1210.241,149.635,1210.384,160.269,1210.455,165.586L1210.526,170.904"/><path marker-end="url(#mermaid-svg-1751598747323-75ohaqz28_flowchart-pointEnd)" style="fill:none;" class="edge-thickness-normal edge-pattern-solid flowchart-link LS-F2 LE-S1_Update" id="L-F2-S1_Update-0" d="M787.191,326.203L787.108,332.237C787.025,338.271,786.858,350.339,809.407,371.364C831.956,392.389,877.222,422.372,899.854,437.363L922.487,452.354"/><path marker-end="url(#mermaid-svg-1751598747323-75ohaqz28_flowchart-pointEnd)" style="fill:none;" class="edge-thickness-normal edge-pattern-solid flowchart-link LS-F3 LE-S1_Update" id="L-F3-S1_Update-0" d="M998.895,337.906L998.811,341.99C998.728,346.073,998.561,354.24,995.666,372.935C992.771,391.63,987.148,420.853,984.336,435.465L981.524,450.077"/><path marker-end="url(#mermaid-svg-1751598747323-75ohaqz28_flowchart-pointEnd)" style="fill:none;" class="edge-thickness-normal edge-pattern-solid flowchart-link LS-F4 LE-S1_Update" id="L-F4-S1_Update-0" d="M1210.598,326.203L1210.514,332.237C1210.431,338.271,1210.264,350.339,1181.636,371.439C1153.007,392.54,1095.917,422.674,1067.372,437.74L1038.827,452.807"/><path marker-end="url(#mermaid-svg-1751598747323-75ohaqz28_flowchart-pointEnd)" style="fill:none;" class="edge-thickness-normal edge-pattern-solid flowchart-link LS-H1 LE-H2" id="L-H1-H2-0" d="M1220.512,793.156L1220.512,799.323C1220.512,805.49,1220.512,817.823,1220.512,837.548C1220.512,857.272,1220.512,884.389,1220.512,897.947L1220.512,911.505"/><path marker-end="url(#mermaid-svg-1751598747323-75ohaqz28_flowchart-pointEnd)" style="fill:none;" class="edge-thickness-normal edge-pattern-solid flowchart-link LS-S1_Update LE-S1" id="L-S1_Update-S1-0" d="M974.461,518.281L974.461,533.76C974.461,549.24,974.461,580.198,974.461,599.844C974.461,619.49,974.461,627.823,974.461,638.156C974.461,648.49,974.461,660.823,974.461,673.156C974.461,685.49,974.461,697.823,976.836,709.349C979.211,720.874,983.962,731.593,986.337,736.952L988.712,742.311"/><path marker-end="url(#mermaid-svg-1751598747323-75ohaqz28_flowchart-pointEnd)" style="fill:none;" class="edge-thickness-normal edge-pattern-solid flowchart-link LS-U6 LE-F5" id="L-U6-F5-0" d="M1475.777,270.203L1475.777,285.57C1475.777,300.938,1475.777,331.672,1475.854,357.135C1475.931,382.598,1476.084,402.79,1476.16,412.886L1476.237,422.981"/><path marker-end="url(#mermaid-svg-1751598747323-75ohaqz28_flowchart-pointEnd)" style="fill:none;" class="edge-thickness-normal edge-pattern-solid flowchart-link LS-F5 LE-S1" id="L-F5-S1-0" d="M1476.277,546.281L1476.194,557.094C1476.111,567.906,1475.944,589.531,1475.861,604.51C1475.777,619.49,1475.777,627.823,1424.932,638.156C1374.087,648.49,1272.397,660.823,1221.552,673.156C1170.707,685.49,1170.707,697.823,1150.485,710.327C1130.263,722.831,1089.818,735.506,1069.596,741.843L1049.374,748.18"/><path marker-end="url(#mermaid-svg-1751598747323-75ohaqz28_flowchart-pointEnd)" style="fill:none;" class="edge-thickness-normal edge-pattern-solid flowchart-link LS-U7 LE-F6" id="L-U7-F6-0" d="M115.492,783.656L115.492,791.406C115.492,799.156,115.492,814.656,115.564,827.773C115.635,840.89,115.778,851.623,115.85,856.99L115.922,862.357"/><path marker-end="url(#mermaid-svg-1751598747323-75ohaqz28_flowchart-pointEnd)" style="fill:none;" class="edge-thickness-normal edge-pattern-solid flowchart-link LS-F6 LE-P1" id="L-F6-P1-0" d="M115.992,1005.953L115.909,1010.036C115.826,1014.12,115.659,1022.286,115.576,1034.536C115.492,1046.786,115.492,1063.12,115.567,1078.653C115.641,1094.187,115.79,1108.92,115.864,1116.287L115.939,1123.653"/><path marker-end="url(#mermaid-svg-1751598747323-75ohaqz28_flowchart-pointEnd)" style="fill:none;" class="edge-thickness-normal edge-pattern-solid flowchart-link LS-P1 LE-P2" id="L-P1-P2-0" d="M115.992,1247.984L115.909,1254.068C115.826,1260.151,115.659,1272.318,115.576,1283.684C115.492,1295.051,115.492,1305.618,115.492,1310.901L115.492,1316.184"/><path marker-end="url(#mermaid-svg-1751598747323-75ohaqz28_flowchart-pointEnd)" style="fill:none;" class="edge-thickness-normal edge-pattern-solid flowchart-link LS-P2 LE-P3" id="L-P2-P3-0" d="M115.492,1355.484L115.492,1361.651C115.492,1367.818,115.492,1380.151,115.492,1391.601C115.492,1403.051,115.492,1413.618,115.492,1418.901L115.492,1424.184"/><path marker-end="url(#mermaid-svg-1751598747323-75ohaqz28_flowchart-pointEnd)" style="fill:none;" class="edge-thickness-normal edge-pattern-solid flowchart-link LS-P3 LE-P4" id="L-P3-P4-0" d="M115.492,1463.484L115.492,1471.651C115.492,1479.818,115.492,1496.151,115.492,1511.601C115.492,1527.051,115.492,1541.618,115.492,1548.901L115.492,1556.184"/><path marker-end="url(#mermaid-svg-1751598747323-75ohaqz28_flowchart-pointEnd)" style="fill:none;" class="edge-thickness-normal edge-pattern-solid flowchart-link LS-P4 LE-P5" id="L-P4-P5-0" d="M115.492,1595.484L115.492,1601.651C115.492,1607.818,115.492,1620.151,115.492,1631.601C115.492,1643.051,115.492,1653.618,115.492,1658.901L115.492,1664.184"/><path marker-end="url(#mermaid-svg-1751598747323-75ohaqz28_flowchart-pointEnd)" style="fill:none;" class="edge-thickness-normal edge-pattern-solid flowchart-link LS-P5 LE-U8" id="L-P5-U8-0" d="M115.492,1708.484L115.492,1714.651C115.492,1720.818,115.492,1733.151,115.492,1744.601C115.492,1756.051,115.492,1766.618,115.492,1771.901L115.492,1777.184"/><path marker-end="url(#mermaid-svg-1751598747323-75ohaqz28_flowchart-pointEnd)" style="fill:none;" class="edge-thickness-normal edge-pattern-solid flowchart-link LS-S1 LE-F6" id="L-S1-F6-0" d="M952.473,768.678L848.423,778.925C744.372,789.171,536.272,809.664,405.335,833.45C274.399,857.237,220.626,884.318,193.739,897.859L166.852,911.399"/></g><g class="edgeLabels"><g class="edgeLabel"><g transform="translate(0, 0)" class="label"><foreignObject height="0" width="0"><div style="display: inline-block; white-space: nowrap;" xmlns="http://www.w3.org/1999/xhtml"><span class="edgeLabel"></span></div></foreignObject></g></g><g class="edgeLabel"><g transform="translate(0, 0)" class="label"><foreignObject height="0" width="0"><div style="display: inline-block; white-space: nowrap;" xmlns="http://www.w3.org/1999/xhtml"><span class="edgeLabel"></span></div></foreignObject></g></g><g transform="translate(397.17578125, 673.15625)" class="edgeLabel"><g transform="translate(-66.5546875, -12)" class="label"><foreignObject height="24" width="133.109375"><div style="display: inline-block; white-space: nowrap;" xmlns="http://www.w3.org/1999/xhtml"><span class="edgeLabel">创建默认'蓝图'对象</span></div></foreignObject></g></g><g transform="translate(1049.02734375, 830.15625)" class="edgeLabel"><g transform="translate(-52.9140625, -12)" class="label"><foreignObject height="24" width="105.828125"><div style="display: inline-block; white-space: nowrap;" xmlns="http://www.w3.org/1999/xhtml"><span class="edgeLabel">Vue响应式渲染</span></div></foreignObject></g></g><g class="edgeLabel"><g transform="translate(0, 0)" class="label"><foreignObject height="0" width="0"><div style="display: inline-block; white-space: nowrap;" xmlns="http://www.w3.org/1999/xhtml"><span class="edgeLabel"></span></div></foreignObject></g></g><g class="edgeLabel"><g transform="translate(0, 0)" class="label"><foreignObject height="0" width="0"><div style="display: inline-block; white-space: nowrap;" xmlns="http://www.w3.org/1999/xhtml"><span class="edgeLabel"></span></div></foreignObject></g></g><g class="edgeLabel"><g transform="translate(0, 0)" class="label"><foreignObject height="0" width="0"><div style="display: inline-block; white-space: nowrap;" xmlns="http://www.w3.org/1999/xhtml"><span class="edgeLabel"></span></div></foreignObject></g></g><g class="edgeLabel"><g transform="translate(0, 0)" class="label"><foreignObject height="0" width="0"><div style="display: inline-block; white-space: nowrap;" xmlns="http://www.w3.org/1999/xhtml"><span class="edgeLabel"></span></div></foreignObject></g></g><g class="edgeLabel"><g transform="translate(0, 0)" class="label"><foreignObject height="0" width="0"><div style="display: inline-block; white-space: nowrap;" xmlns="http://www.w3.org/1999/xhtml"><span class="edgeLabel"></span></div></foreignObject></g></g><g class="edgeLabel"><g transform="translate(0, 0)" class="label"><foreignObject height="0" width="0"><div style="display: inline-block; white-space: nowrap;" xmlns="http://www.w3.org/1999/xhtml"><span class="edgeLabel"></span></div></foreignObject></g></g><g transform="translate(1220.51171875, 830.15625)" class="edgeLabel"><g transform="translate(-32, -12)" class="label"><foreignObject height="24" width="64"><div style="display: inline-block; white-space: nowrap;" xmlns="http://www.w3.org/1999/xhtml"><span class="edgeLabel">记录快照</span></div></foreignObject></g></g><g class="edgeLabel"><g transform="translate(0, 0)" class="label"><foreignObject height="0" width="0"><div style="display: inline-block; white-space: nowrap;" xmlns="http://www.w3.org/1999/xhtml"><span class="edgeLabel"></span></div></foreignObject></g></g><g class="edgeLabel"><g transform="translate(0, 0)" class="label"><foreignObject height="0" width="0"><div style="display: inline-block; white-space: nowrap;" xmlns="http://www.w3.org/1999/xhtml"><span class="edgeLabel"></span></div></foreignObject></g></g><g transform="translate(1170.70703125, 673.15625)" class="edgeLabel"><g transform="translate(-66.5546875, -12)" class="label"><foreignObject height="24" width="133.109375"><div style="display: inline-block; white-space: nowrap;" xmlns="http://www.w3.org/1999/xhtml"><span class="edgeLabel">批量载入'蓝图'对象</span></div></foreignObject></g></g><g class="edgeLabel"><g transform="translate(0, 0)" class="label"><foreignObject height="0" width="0"><div style="display: inline-block; white-space: nowrap;" xmlns="http://www.w3.org/1999/xhtml"><span class="edgeLabel"></span></div></foreignObject></g></g><g transform="translate(115.4921875, 1079.453125)" class="edgeLabel"><g transform="translate(-70.421875, -24)" class="label"><foreignObject height="48" width="140.84375"><div style="display: inline-block; white-space: nowrap;" xmlns="http://www.w3.org/1999/xhtml"><span class="edgeLabel">从Pinia Store中读取<br />所有'蓝图'对象</span></div></foreignObject></g></g><g transform="translate(115.4921875, 1284.484375)" class="edgeLabel"><g transform="translate(-57.546875, -12)" class="label"><foreignObject height="24" width="115.09375"><div style="display: inline-block; white-space: nowrap;" xmlns="http://www.w3.org/1999/xhtml"><span class="edgeLabel">1. 创建演示文稿</span></div></foreignObject></g></g><g transform="translate(115.4921875, 1392.484375)" class="edgeLabel"><g transform="translate(-73.546875, -12)" class="label"><foreignObject height="24" width="147.09375"><div style="display: inline-block; white-space: nowrap;" xmlns="http://www.w3.org/1999/xhtml"><span class="edgeLabel">2. 遍历幻灯片和元素</span></div></foreignObject></g></g><g transform="translate(115.4921875, 1512.484375)" class="edgeLabel"><g transform="translate(-81.546875, -24)" class="label"><foreignObject height="48" width="163.09375"><div style="display: inline-block; white-space: nowrap;" xmlns="http://www.w3.org/1999/xhtml"><span class="edgeLabel">3. 转换数据并添加对象<br />(文本/图片/形状等)</span></div></foreignObject></g></g><g transform="translate(115.4921875, 1632.484375)" class="edgeLabel"><g transform="translate(-41.546875, -12)" class="label"><foreignObject height="24" width="83.09375"><div style="display: inline-block; white-space: nowrap;" xmlns="http://www.w3.org/1999/xhtml"><span class="edgeLabel">4. 生成文件</span></div></foreignObject></g></g><g transform="translate(115.4921875, 1745.484375)" class="edgeLabel"><g transform="translate(-32, -12)" class="label"><foreignObject height="24" width="64"><div style="display: inline-block; white-space: nowrap;" xmlns="http://www.w3.org/1999/xhtml"><span class="edgeLabel">触发下载</span></div></foreignObject></g></g><g class="edgeLabel"><g transform="translate(0, 0)" class="label"><foreignObject height="0" width="0"><div style="display: inline-block; white-space: nowrap;" xmlns="http://www.w3.org/1999/xhtml"><span class="edgeLabel"></span></div></foreignObject></g></g></g><g class="nodes"><g transform="translate(115.4921875, 936.3046875)" id="flowchart-F6-223" class="node default default flowchart-label"><polygon style="" transform="translate(-69.1484375,69.1484375)" class="label-container" points="69.1484375,0 138.296875,-69.1484375 69.1484375,-138.296875 0,-69.1484375"/><g transform="translate(-44.6484375, -9.5)" style="" class="label"><rect/><foreignObject height="19" width="89.296875"><div style="display: inline-block; white-space: nowrap;" xmlns="http://www.w3.org/1999/xhtml"><span class="nodeLabel">useExport.ts</span></div></foreignObject></g></g><g transform="translate(115.4921875, 764.15625)" id="flowchart-U7-222" class="node default default flowchart-label"><rect height="39" width="152.15625" y="-19.5" x="-76.078125" ry="5" rx="5" style="fill:#cff;stroke:#333;stroke-width:2px;" class="basic label-container"/><g transform="translate(-68.578125, -12)" style="" class="label"><rect/><foreignObject height="24" width="137.15625"><div style="display: inline-block; white-space: nowrap;" xmlns="http://www.w3.org/1999/xhtml"><span class="nodeLabel">用户点击'导出PPTX'</span></div></foreignObject></g></g><g transform="translate(115.4921875, 1187.96875)" id="flowchart-P1-225" class="node default default flowchart-label"><polygon style="" transform="translate(-59.515625,59.515625)" class="label-container" points="59.515625,0 119.03125,-59.515625 59.515625,-119.03125 0,-59.515625"/><g transform="translate(-35.015625, -9.5)" style="" class="label"><rect/><foreignObject height="19" width="70.03125"><div style="display: inline-block; white-space: nowrap;" xmlns="http://www.w3.org/1999/xhtml"><span class="nodeLabel">pptxgenjs</span></div></foreignObject></g></g><g transform="translate(115.4921875, 1338.484375)" id="flowchart-P2-227" class="node default default flowchart-label"><rect height="34" width="32.3125" y="-17" x="-16.15625" ry="0" rx="0" style="" class="basic label-container"/><g transform="translate(-8.65625, -9.5)" style="" class="label"><rect/><foreignObject height="19" width="17.3125"><div style="display: inline-block; white-space: nowrap;" xmlns="http://www.w3.org/1999/xhtml"><span class="nodeLabel">P2</span></div></foreignObject></g></g><g transform="translate(115.4921875, 1446.484375)" id="flowchart-P3-229" class="node default default flowchart-label"><rect height="34" width="32.3125" y="-17" x="-16.15625" ry="0" rx="0" style="" class="basic label-container"/><g transform="translate(-8.65625, -9.5)" style="" class="label"><rect/><foreignObject height="19" width="17.3125"><div style="display: inline-block; white-space: nowrap;" xmlns="http://www.w3.org/1999/xhtml"><span class="nodeLabel">P3</span></div></foreignObject></g></g><g transform="translate(115.4921875, 1578.484375)" id="flowchart-P4-231" class="node default default flowchart-label"><rect height="34" width="32.3125" y="-17" x="-16.15625" ry="0" rx="0" style="" class="basic label-container"/><g transform="translate(-8.65625, -9.5)" style="" class="label"><rect/><foreignObject height="19" width="17.3125"><div style="display: inline-block; white-space: nowrap;" xmlns="http://www.w3.org/1999/xhtml"><span class="nodeLabel">P4</span></div></foreignObject></g></g><g transform="translate(115.4921875, 1688.984375)" id="flowchart-P5-233" class="node default default flowchart-label"><rect height="39" width="160.984375" y="-19.5" x="-80.4921875" ry="5" rx="5" style="" class="basic label-container"/><g transform="translate(-72.9921875, -12)" style="" class="label"><rect/><foreignObject height="24" width="145.984375"><div style="display: inline-block; white-space: nowrap;" xmlns="http://www.w3.org/1999/xhtml"><span class="nodeLabel">调用pptx.writeFile()</span></div></foreignObject></g></g><g transform="translate(115.4921875, 1801.984375)" id="flowchart-U8-235" class="node default default flowchart-label"><rect height="39" width="149.0625" y="-19.5" x="-74.53125" ry="5" rx="5" style="fill:#9f9;stroke:#333;stroke-width:2px;" class="basic label-container"/><g transform="translate(-67.03125, -12)" style="" class="label"><rect/><foreignObject height="24" width="134.0625"><div style="display: inline-block; white-space: nowrap;" xmlns="http://www.w3.org/1999/xhtml"><span class="nodeLabel">用户获得.pptx文件</span></div></foreignObject></g></g><g transform="translate(1475.77734375, 486.78125)" id="flowchart-F5-219" class="node default default flowchart-label"><polygon style="" transform="translate(-59,59)" class="label-container" points="59,0 118,-59 59,-118 0,-59"/><g transform="translate(-32, -12)" style="" class="label"><rect/><foreignObject height="24" width="64"><div style="display: inline-block; white-space: nowrap;" xmlns="http://www.w3.org/1999/xhtml"><span class="nodeLabel">解析文件</span></div></foreignObject></g></g><g transform="translate(1475.77734375, 250.703125)" id="flowchart-U6-218" class="node default default flowchart-label"><rect height="39" width="158.4375" y="-19.5" x="-79.21875" ry="5" rx="5" style="fill:#cff;stroke:#333;stroke-width:2px;" class="basic label-container"/><g transform="translate(-71.71875, -12)" style="" class="label"><rect/><foreignObject height="24" width="143.4375"><div style="display: inline-block; white-space: nowrap;" xmlns="http://www.w3.org/1999/xhtml"><span class="nodeLabel">用户打开.pptist文件</span></div></foreignObject></g></g><g transform="translate(397.17578125, 486.78125)" id="flowchart-F1-195" class="node default default flowchart-label"><polygon style="" transform="translate(-99.375,99.375)" class="label-container" points="99.375,0 198.75,-99.375 99.375,-198.75 0,-99.375"/><g transform="translate(-74.875, -9.5)" style="" class="label"><rect/><foreignObject height="19" width="149.75"><div style="display: inline-block; white-space: nowrap;" xmlns="http://www.w3.org/1999/xhtml"><span class="nodeLabel">useCreateElement.ts</span></div></foreignObject></g></g><g transform="translate(376.69921875, 250.703125)" id="flowchart-U1-194" class="node default default flowchart-label"><rect height="39" width="164.109375" y="-19.5" x="-82.0546875" ry="5" rx="5" style="fill:#cff;stroke:#333;stroke-width:2px;" class="basic label-container"/><g transform="translate(-74.5546875, -12)" style="" class="label"><rect/><foreignObject height="24" width="149.109375"><div style="display: inline-block; white-space: nowrap;" xmlns="http://www.w3.org/1999/xhtml"><span class="nodeLabel">用户点击'插入文本框'</span></div></foreignObject></g></g><g transform="translate(564.25390625, 250.703125)" id="flowchart-U2-196" class="node default default flowchart-label"><rect height="39" width="111" y="-19.5" x="-55.5" ry="5" rx="5" style="fill:#cff;stroke:#333;stroke-width:2px;" class="basic label-container"/><g transform="translate(-48, -12)" style="" class="label"><rect/><foreignObject height="24" width="96"><div style="display: inline-block; white-space: nowrap;" xmlns="http://www.w3.org/1999/xhtml"><span class="nodeLabel">用户拖拽形状</span></div></foreignObject></g></g><g transform="translate(998.39453125, 764.15625)" id="flowchart-S1-199" class="node default default flowchart-label"><rect height="34" width="91.84375" y="-17" x="-45.921875" ry="0" rx="0" style="fill:#f9f;stroke:#333;stroke-width:2px;" class="basic label-container"/><g transform="translate(-38.421875, -9.5)" style="" class="label"><rect/><foreignObject height="19" width="76.84375"><div style="display: inline-block; white-space: nowrap;" xmlns="http://www.w3.org/1999/xhtml"><span class="nodeLabel">Pinia Store</span></div></foreignObject></g></g><g transform="translate(1049.02734375, 936.3046875)" id="flowchart-C1-201" class="node default default flowchart-label"><rect height="39" width="127" y="-19.5" x="-63.5" ry="5" rx="5" style="" class="basic label-container"/><g transform="translate(-56, -12)" style="" class="label"><rect/><foreignObject height="24" width="112"><div style="display: inline-block; white-space: nowrap;" xmlns="http://www.w3.org/1999/xhtml"><span class="nodeLabel">画布上显示元素</span></div></foreignObject></g></g><g transform="translate(786.69140625, 44.5)" id="flowchart-U3-202" class="node default default flowchart-label"><rect height="39" width="151.390625" y="-19.5" x="-75.6953125" ry="5" rx="5" style="fill:#cff;stroke:#333;stroke-width:2px;" class="basic label-container"/><g transform="translate(-68.1953125, -12)" style="" class="label"><rect/><foreignObject height="24" width="136.390625"><div style="display: inline-block; white-space: nowrap;" xmlns="http://www.w3.org/1999/xhtml"><span class="nodeLabel">用户移动/缩放元素</span></div></foreignObject></g></g><g transform="translate(998.39453125, 44.5)" id="flowchart-U4-204" class="node default default flowchart-label"><rect height="39" width="111" y="-19.5" x="-55.5" ry="5" rx="5" style="fill:#cff;stroke:#333;stroke-width:2px;" class="basic label-container"/><g transform="translate(-48, -12)" style="" class="label"><rect/><foreignObject height="24" width="96"><div style="display: inline-block; white-space: nowrap;" xmlns="http://www.w3.org/1999/xhtml"><span class="nodeLabel">用户修改文本</span></div></foreignObject></g></g><g transform="translate(1210.09765625, 44.5)" id="flowchart-U5-206" class="node default default flowchart-label"><rect height="39" width="111" y="-19.5" x="-55.5" ry="5" rx="5" style="fill:#cff;stroke:#333;stroke-width:2px;" class="basic label-container"/><g transform="translate(-48, -12)" style="" class="label"><rect/><foreignObject height="24" width="96"><div style="display: inline-block; white-space: nowrap;" xmlns="http://www.w3.org/1999/xhtml"><span class="nodeLabel">用户调整样式</span></div></foreignObject></g></g><g transform="translate(1220.51171875, 936.3046875)" id="flowchart-H2-215" class="node default default flowchart-label"><rect height="39" width="95" y="-19.5" x="-47.5" ry="5" rx="5" style="" class="basic label-container"/><g transform="translate(-40, -12)" style="" class="label"><rect/><foreignObject height="24" width="80"><div style="display: inline-block; white-space: nowrap;" xmlns="http://www.w3.org/1999/xhtml"><span class="nodeLabel">历史记录栈</span></div></foreignObject></g></g><g transform="translate(1220.51171875, 764.15625)" id="flowchart-H1-214" class="node default default flowchart-label"><rect height="58" width="172.09375" y="-29" x="-86.046875" ry="5" rx="5" style="" class="basic label-container"/><g transform="translate(-78.546875, -21.5)" style="" class="label"><rect/><foreignObject height="43" width="157.09375"><div style="display: inline-block; white-space: nowrap;" xmlns="http://www.w3.org/1999/xhtml"><span class="nodeLabel">执行操作前<br />useHistorySnapshot.ts</span></div></foreignObject></g></g><g transform="translate(974.4609375, 486.78125)" id="flowchart-S1_Update-209" class="node default default flowchart-label"><rect height="63" width="155.84375" y="-31.5" x="-77.921875" ry="5" rx="5" style="" class="basic label-container"/><g transform="translate(-70.421875, -24)" style="" class="label"><rect/><foreignObject height="48" width="140.84375"><div style="display: inline-block; white-space: nowrap;" xmlns="http://www.w3.org/1999/xhtml"><span class="nodeLabel">修改Pinia Store中的<br />'蓝图'对象数据</span></div></foreignObject></g></g><g transform="translate(786.69140625, 250.703125)" id="flowchart-F2-203" class="node default default flowchart-label"><polygon style="" transform="translate(-75,75)" class="label-container" points="75,0 150,-75 75,-150 0,-75"/><g transform="translate(-48, -12)" style="" class="label"><rect/><foreignObject height="24" width="96"><div style="display: inline-block; white-space: nowrap;" xmlns="http://www.w3.org/1999/xhtml"><span class="nodeLabel">更新位置尺寸</span></div></foreignObject></g></g><g transform="translate(998.39453125, 250.703125)" id="flowchart-F3-205" class="node default default flowchart-label"><polygon style="" transform="translate(-86.703125,86.703125)" class="label-container" points="86.703125,0 173.40625,-86.703125 86.703125,-173.40625 0,-86.703125"/><g transform="translate(-59.703125, -12)" style="" class="label"><rect/><foreignObject height="24" width="119.40625"><div style="display: inline-block; white-space: nowrap;" xmlns="http://www.w3.org/1999/xhtml"><span class="nodeLabel">更新content内容</span></div></foreignObject></g></g><g transform="translate(1210.09765625, 250.703125)" id="flowchart-F4-207" class="node default default flowchart-label"><polygon style="" transform="translate(-75,75)" class="label-container" points="75,0 150,-75 75,-150 0,-75"/><g transform="translate(-48, -12)" style="" class="label"><rect/><foreignObject height="24" width="96"><div style="display: inline-block; white-space: nowrap;" xmlns="http://www.w3.org/1999/xhtml"><span class="nodeLabel">更新样式属性</span></div></foreignObject></g></g></g></g></g></svg>